<?xml version="1.0" encoding="UTF-8" standalone="no"?>
<!-- Created with Inkscape (http://www.inkscape.org/) -->

<svg
   width="96.73243mm"
   height="89.597672mm"
   viewBox="0 0 96.73243 89.597672"
   version="1.1"
   id="svg5"
   inkscape:version="1.2.1 (ef4d3fba62, 2022-07-19, custom)"
   sodipodi:docname="supersenior.svg"
   xmlns:inkscape="http://www.inkscape.org/namespaces/inkscape"
   xmlns:sodipodi="http://sodipodi.sourceforge.net/DTD/sodipodi-0.dtd"
   xmlns="http://www.w3.org/2000/svg"
   xmlns:svg="http://www.w3.org/2000/svg">
  <sodipodi:namedview
     id="namedview7"
     pagecolor="#ffffff"
     bordercolor="#000000"
     borderopacity="0.25"
     inkscape:showpageshadow="2"
     inkscape:pageopacity="0.0"
     inkscape:pagecheckerboard="0"
     inkscape:deskcolor="#d1d1d1"
     inkscape:document-units="mm"
     showgrid="false"
     inkscape:zoom="1"
     inkscape:cx="114"
     inkscape:cy="366.5"
     inkscape:window-width="1848"
     inkscape:window-height="1016"
     inkscape:window-x="72"
     inkscape:window-y="27"
     inkscape:window-maximized="1"
     inkscape:current-layer="layer1" />
  <defs
     id="defs2" />
  <g
     inkscape:label="Layer 1"
     inkscape:groupmode="layer"
     id="layer1"
     transform="translate(-44.155667,-20.624776)">
    <g
       id="g25629"
       transform="translate(-8.3306605,-23.974829)"
       inkscape:export-filename="../ae651ab9/supersenior.svg"
       inkscape:export-xdpi="96"
       inkscape:export-ydpi="96"
       style="fill:#ffffff">
      <g
         aria-label="S "
         transform="matrix(1.2667491,0,0,1.0121326,-69.587441,-34.226502)"
         id="text7780"
         style="font-size:59.4175px;font-family:Blockletter;-inkscape-font-specification:Blockletter;fill:#ffffff;stroke:#000000;stroke-width:1.16834">
        <path
           style="color:#000000;-inkscape-font-specification:Blockletter;fill:#ffffff;stroke:none"
           d="m 120.96875,92.070312 -0.16992,0.171875 -6.11719,6.148438 v 12.751955 l 6.14063,6.26367 h 6.73437 l 0.006,0.14648 0.0606,7.33008 H 123.625 v -6.0625 h -8.94336 v 8.7168 l 6.28906,6.28906 14.1875,0.0254 -6.33789,-6.55664 v -6.91015 l -0.0879,-2.78125 -0.004,-0.41407 0.0332,-1.79297 6.98633,-6.90625 H 123.625 v -7.47656 h 8.46289 v 6.06446 h 8.91406 v -8.687505 l -6.28906,-6.320313 z m 0.48633,1.167969 h 12.77344 l 5.60546,5.632813 v 7.037106 h -6.57812 v -6.062497 h -10.80078 v 9.814457 h 10.44922 l -5.30078,5.24023 -0.0254,1.33789 h -6.26563 l -5.46289,-5.57422 V 98.871094 Z m -5.60547,26.749999 h 6.60547 v 6.0625 h 5.19726 v 1.7168 l 4.7461,4.91015 -10.94336,-0.0195 -5.60547,-5.60547 z"
           id="path8568" />
      </g>
      <g
         aria-label="S "
         transform="matrix(1.2667491,0,0,1.0121326,-69.387139,-34.348693)"
         id="text8566"
         style="font-size:59.4175px;font-family:Blockletter;-inkscape-font-specification:Blockletter;fill:#ffffff;stroke:#000000;stroke-width:1.16834">
        <path
           style="color:#000000;-inkscape-font-specification:Blockletter;fill:#ffffff;stroke:none"
           d="m 133.72852,108.62891 -0.16993,0.17187 -6.11914,6.14844 v 12.75195 l 6.14258,6.26367 h 11.26563 v 7.47852 h -8.46289 v -6.06445 h -8.94532 v 8.71679 l 6.29102,6.29102 h 13.74219 l 6.28906,-6.29102 v -12.70117 l -1.8711,-1.81836 0.0293,-0.0293 -4.5957,-4.49609 h -10.93945 v -7.47656 h 8.46289 v 6.0625 h 8.91406 v -8.6875 l -6.28906,-6.32031 z m 0.48437,1.16992 h 12.77539 l 5.60547,5.63281 v 7.03711 h -6.57813 v -6.06445 h -10.80078 v 9.81445 h 11.63282 l 3.41211,3.33594 -0.0312,0.0312 2.36523,2.30078 v 11.72656 l -5.60547,5.60547 h -12.77344 l -5.60547,-5.60547 v -7.06641 h 6.60547 v 6.06446 h 10.80078 v -9.81446 h -11.94335 l -5.4629,-5.57226 v -11.79297 z"
           id="path8571" />
        <path
           style="color:#000000;-inkscape-font-specification:Blockletter;fill:#ffffff;stroke:none"
           d="m 133.72852,108.62891 -0.16993,0.17187 -6.11914,6.14844 v 12.75195 l 6.14258,6.26367 h 11.26563 v 7.47852 h -8.46289 v -6.06445 h -8.94532 v 8.71679 l 6.29102,6.29102 h 13.74219 l 6.28906,-6.29102 v -12.70117 l -1.8711,-1.81836 0.0293,-0.0293 -4.5957,-4.49609 h -10.93945 v -7.47656 h 8.46289 v 6.0625 h 8.91406 v -8.6875 l -6.28906,-6.32031 z m 0.48437,1.16992 h 12.77539 l 5.60547,5.63281 v 7.03711 h -6.57813 v -6.06445 h -10.80078 v 9.81445 h 11.63282 l 3.41211,3.33594 -0.0312,0.0312 2.36523,2.30078 v 11.72656 l -5.60547,5.60547 h -12.77344 l -5.60547,-5.60547 v -7.06641 h 6.60547 v 6.06446 h 10.80078 v -9.81446 h -11.94335 l -5.4629,-5.57226 v -11.79297 z"
           id="path8578" />
        <path
           style="color:#000000;-inkscape-font-specification:Blockletter;fill:#ffffff;stroke:none"
           d="m 133.72852,108.62891 -0.16993,0.17187 -6.11914,6.14844 v 12.75781 l 6.14649,6.04688 11.24414,-0.041 0.0156,7.73047 h -8.46093 v -6.06445 h -8.94532 v 8.71679 l 6.29102,6.29102 h 13.74219 l 6.28906,-6.29102 v -12.70117 l -1.8711,-1.81836 0.0293,-0.0293 -4.5957,-4.49609 h -10.93945 v -7.47851 h 8.46289 v 6.06445 h 8.91406 v -8.6875 l -6.28906,-6.32031 z m 0.48437,1.16992 h 12.77539 l 5.60547,5.63281 v 7.03711 h -6.57813 v -6.06445 h -10.80078 v 9.81445 h 11.63282 l 3.41211,3.33594 -0.0312,0.0312 2.36523,2.30078 v 11.72656 l -5.60547,5.60547 h -12.77344 l -5.60547,-5.60547 v -7.06641 h 6.60547 v 6.06446 h 10.80274 l -0.0215,-10.07227 -11.93359,0.0449 -5.45313,-5.36523 v -11.78711 z"
           id="path8580" />
        <path
           style="color:#000000;-inkscape-font-specification:Blockletter;fill:#ffffff;stroke:none"
           d="m 133.72852,108.62891 -0.16993,0.17187 -6.11914,6.14844 v 12.75781 l 6.14649,6.04688 11.24414,-0.041 0.0156,7.73047 h -8.46093 v -6.06445 h -8.94532 v 8.71679 l 6.29102,6.29102 h 13.74219 l 6.28906,-6.29102 v -12.70117 l -1.8711,-1.81836 0.0293,-0.0293 -4.5957,-4.49609 h -10.93945 v -7.47851 h 8.46289 v 6.06445 h 8.91406 v -8.6875 l -6.28906,-6.32031 z m 0.48437,1.16992 h 12.77539 l 5.60547,5.63281 v 7.03711 h -6.57813 v -6.06445 h -10.80078 v 9.81445 h 11.63282 l 3.41211,3.33594 -0.0312,0.0312 2.36523,2.30078 v 11.72656 l -5.60547,5.60547 h -12.77344 l -5.60547,-5.60547 v -7.06641 h 6.60547 v 6.06446 h 10.80274 l -0.0215,-10.07227 -11.93359,0.0449 -5.45313,-5.36523 v -11.78711 z"
           id="path9397" />
      </g>
      <path
         style="color:#000000;fill:#ffffff;stroke-linecap:round"
         d="m 113.17383,44.599609 a 0.33072901,0.33072901 0 0 0 -0.33008,0.330078 0.33072901,0.33072901 0 0 0 0.33008,0.330079 h 3.29297 a 0.33072901,0.33072901 0 0 0 0.33203,-0.330079 0.33072901,0.33072901 0 0 0 -0.33203,-0.330078 z"
         id="path12538" />
      <path
         style="color:#000000;fill:#ffffff;stroke-linecap:round"
         d="m 102.74609,44.599609 a 0.33072901,0.33072901 0 0 0 -0.33007,0.330078 0.33072901,0.33072901 0 0 0 0.33007,0.330079 h 4.87696 a 0.33072901,0.33072901 0 0 0 0.33203,-0.330079 0.33072901,0.33072901 0 0 0 -0.33203,-0.330078 z"
         id="path18730" />
      <path
         style="color:#000000;fill:#ffffff;stroke-linecap:round"
         d="m 98.257812,44.599609 a 0.33072901,0.33072901 0 0 0 -0.332031,0.330078 0.33072901,0.33072901 0 0 0 0.332031,0.330079 h 1.119141 a 0.33072901,0.33072901 0 0 0 0.330078,-0.330079 0.33072901,0.33072901 0 0 0 -0.330078,-0.330078 z"
         id="path18726" />
      <path
         style="color:#000000;fill:#ffffff;stroke-linecap:round"
         d="m 91.986328,44.599609 a 0.33072901,0.33072901 0 0 0 -0.332031,0.330078 0.33072901,0.33072901 0 0 0 0.332031,0.330079 h 1.212891 a 0.33072901,0.33072901 0 0 0 0.330078,-0.330079 0.33072901,0.33072901 0 0 0 -0.330078,-0.330078 z"
         id="path18722" />
      <path
         style="color:#000000;fill:#ffffff;stroke-linecap:round"
         d="m 85.238281,44.599609 a 0.33072901,0.33072901 0 0 0 -0.330078,0.330078 0.33072901,0.33072901 0 0 0 0.330078,0.330079 h 3.378906 a 0.33072901,0.33072901 0 0 0 0.330079,-0.330079 0.33072901,0.33072901 0 0 0 -0.330079,-0.330078 z"
         id="path18718" />
      <path
         style="color:#000000;fill:#ffffff;stroke-linecap:round"
         d="m 124.98242,49.029297 a 0.33072901,0.33072901 0 0 0 -0.33008,0.332031 0.33072901,0.33072901 0 0 0 0.33008,0.330078 h 1.00586 a 0.33072901,0.33072901 0 0 0 0.33008,-0.330078 0.33072901,0.33072901 0 0 0 -0.33008,-0.332031 z"
         id="path12528" />
      <path
         style="color:#000000;fill:#ffffff;stroke-linecap:round"
         d="m 106.42383,49.029297 a 0.33072901,0.33072901 0 0 0 -0.33203,0.332031 0.33072901,0.33072901 0 0 0 0.33203,0.330078 h 9.58594 a 0.33072901,0.33072901 0 0 0 0.33203,-0.330078 0.33072901,0.33072901 0 0 0 -0.33203,-0.332031 z"
         id="path18749" />
      <path
         style="color:#000000;fill:#ffffff;stroke-linecap:round"
         d="m 101.76367,49.029297 a 0.33072901,0.33072901 0 0 0 -0.33008,0.332031 0.33072901,0.33072901 0 0 0 0.33008,0.330078 h 3.53125 a 0.33072901,0.33072901 0 0 0 0.33008,-0.330078 0.33072901,0.33072901 0 0 0 -0.33008,-0.332031 z"
         id="path18745" />
      <path
         style="color:#000000;fill:#ffffff;stroke-linecap:round"
         d="m 88.496094,49.029297 a 0.33072901,0.33072901 0 0 0 -0.330078,0.332031 0.33072901,0.33072901 0 0 0 0.330078,0.330078 h 7.443359 a 0.33072901,0.33072901 0 0 0 0.330078,-0.330078 0.33072901,0.33072901 0 0 0 -0.330078,-0.332031 z"
         id="path18741" />
      <path
         style="color:#000000;fill:#ffffff;stroke-linecap:round"
         d="m 75.929687,49.029297 a 0.33072901,0.33072901 0 0 0 -0.330078,0.332031 0.33072901,0.33072901 0 0 0 0.330078,0.330078 h 9.197266 a 0.33072901,0.33072901 0 0 0 0.330078,-0.330078 0.33072901,0.33072901 0 0 0 -0.330078,-0.332031 z"
         id="path18737" />
      <path
         style="color:#000000;fill:#ffffff;stroke-linecap:round"
         d="m 120.94922,59.175781 a 0.33072901,0.33072901 0 0 0 -0.33008,0.332031 0.33072901,0.33072901 0 0 0 0.33008,0.330079 h 16.7168 a 0.33072901,0.33072901 0 0 0 0.33203,-0.330079 0.33072901,0.33072901 0 0 0 -0.33203,-0.332031 z"
         id="path12522" />
      <path
         style="color:#000000;fill:#ffffff;stroke-linecap:round"
         d="m 106.40234,59.175781 a 0.33072901,0.33072901 0 0 0 -0.33007,0.332031 0.33072901,0.33072901 0 0 0 0.33007,0.330079 h 5.45899 a 0.33072901,0.33072901 0 0 0 0.33008,-0.330079 0.33072901,0.33072901 0 0 0 -0.33008,-0.332031 z"
         id="path18809" />
      <path
         style="color:#000000;fill:#ffffff;stroke-linecap:round"
         d="m 70.589844,59.175781 a 0.33072901,0.33072901 0 0 0 -0.330078,0.332031 0.33072901,0.33072901 0 0 0 0.330078,0.330079 h 9.857422 a 0.33072901,0.33072901 0 0 0 0.330078,-0.330079 0.33072901,0.33072901 0 0 0 -0.330078,-0.332031 z"
         id="path15465" />
      <path
         style="color:#000000;fill:#ffffff;stroke-linecap:round"
         d="m 64.039062,59.175781 a 0.33072901,0.33072901 0 0 0 -0.332031,0.332031 0.33072901,0.33072901 0 0 0 0.332031,0.330079 h 3 a 0.33072901,0.33072901 0 0 0 0.330079,-0.330079 0.33072901,0.33072901 0 0 0 -0.330079,-0.332031 z"
         id="path18804" />
      <path
         style="color:#000000;fill:#ffffff;stroke-linecap:round"
         d="m 126.9707,65.722656 a 0.33072901,0.33072901 0 0 0 -0.33007,0.332031 0.33072901,0.33072901 0 0 0 0.33007,0.330079 h 15.32227 a 0.33072901,0.33072901 0 0 0 0.33203,-0.330079 0.33072901,0.33072901 0 0 0 -0.33203,-0.332031 z"
         id="path12516" />
      <path
         style="color:#000000;fill:#ffffff;stroke-linecap:round"
         d="m 110.18945,65.722656 a 0.33072901,0.33072901 0 0 0 -0.33007,0.332031 0.33072901,0.33072901 0 0 0 0.33007,0.330079 h 13.41211 a 0.33072901,0.33072901 0 0 0 0.33008,-0.330079 0.33072901,0.33072901 0 0 0 -0.33008,-0.332031 z"
         id="path18819" />
      <path
         style="color:#000000;fill:#ffffff;stroke-linecap:round"
         d="m 68.597656,65.722656 a 0.33072901,0.33072901 0 0 0 -0.332031,0.332031 0.33072901,0.33072901 0 0 0 0.332031,0.330079 h 5.492188 a 0.33072901,0.33072901 0 0 0 0.332031,-0.330079 0.33072901,0.33072901 0 0 0 -0.332031,-0.332031 z"
         id="path15489" />
      <path
         style="color:#000000;fill:#ffffff;stroke-linecap:round"
         d="m 59.412109,65.722656 a 0.33072901,0.33072901 0 0 0 -0.330078,0.332031 0.33072901,0.33072901 0 0 0 0.330078,0.330079 h 3.792969 a 0.33072901,0.33072901 0 0 0 0.330078,-0.330079 0.33072901,0.33072901 0 0 0 -0.330078,-0.332031 z"
         id="path19853" />
      <path
         style="color:#000000;fill:#ffffff;stroke-linecap:round"
         d="m 139.7207,71.986328 a 0.33072901,0.33072901 0 0 0 -0.33008,0.330078 0.33072901,0.33072901 0 0 0 0.33008,0.330078 h 5.66602 a 0.33072901,0.33072901 0 0 0 0.33203,-0.330078 0.33072901,0.33072901 0 0 0 -0.33203,-0.330078 z"
         id="path12510" />
      <path
         style="color:#000000;fill:#ffffff;stroke-linecap:round"
         d="m 133.88281,71.986328 a 0.33072901,0.33072901 0 0 0 -0.33203,0.330078 0.33072901,0.33072901 0 0 0 0.33203,0.330078 h 2.46875 a 0.33072901,0.33072901 0 0 0 0.33008,-0.330078 0.33072901,0.33072901 0 0 0 -0.33008,-0.330078 z"
         id="path18834" />
      <path
         style="color:#000000;fill:#ffffff;stroke-linecap:round"
         d="m 121.04102,71.986328 a 0.33072901,0.33072901 0 0 0 -0.33008,0.330078 0.33072901,0.33072901 0 0 0 0.33008,0.330078 h 9.4707 a 0.33072901,0.33072901 0 0 0 0.33203,-0.330078 0.33072901,0.33072901 0 0 0 -0.33203,-0.330078 z"
         id="path18830" />
      <path
         style="color:#000000;fill:#ffffff;stroke-linecap:round"
         d="m 111.49805,71.986328 a 0.33072901,0.33072901 0 0 0 -0.33008,0.330078 0.33072901,0.33072901 0 0 0 0.33008,0.330078 h 6.17383 a 0.33072901,0.33072901 0 0 0 0.33007,-0.330078 0.33072901,0.33072901 0 0 0 -0.33007,-0.330078 z"
         id="path18826" />
      <path
         style="color:#000000;fill:#ffffff;stroke-linecap:round"
         d="m 70.927734,71.986328 a 0.33072901,0.33072901 0 0 0 -0.330078,0.330078 0.33072901,0.33072901 0 0 0 0.330078,0.330078 h 2.867188 A 0.33072901,0.33072901 0 0 0 74.125,72.316406 0.33072901,0.33072901 0 0 0 73.794922,71.986328 Z"
         id="path15496" />
      <path
         style="color:#000000;fill:#ffffff;stroke-linecap:round"
         d="m 66.732422,71.986328 a 0.33072901,0.33072901 0 0 0 -0.332031,0.330078 0.33072901,0.33072901 0 0 0 0.332031,0.330078 h 0.826172 a 0.33072901,0.33072901 0 0 0 0.330078,-0.330078 0.33072901,0.33072901 0 0 0 -0.330078,-0.330078 z"
         id="path19869" />
      <path
         style="color:#000000;fill:#ffffff;stroke-linecap:round"
         d="m 62.355469,71.986328 a 0.33072901,0.33072901 0 0 0 -0.330078,0.330078 0.33072901,0.33072901 0 0 0 0.330078,0.330078 h 0.490234 a 0.33072901,0.33072901 0 0 0 0.330078,-0.330078 0.33072901,0.33072901 0 0 0 -0.330078,-0.330078 z"
         id="path19865" />
      <path
         style="color:#000000;fill:#ffffff;stroke-linecap:round"
         d="m 56.318359,71.986328 a 0.33072901,0.33072901 0 0 0 -0.330078,0.330078 0.33072901,0.33072901 0 0 0 0.330078,0.330078 h 2.667969 a 0.33072901,0.33072901 0 0 0 0.332031,-0.330078 0.33072901,0.33072901 0 0 0 -0.332031,-0.330078 z"
         id="path19861" />
      <path
         style="color:#000000;fill:#ffffff;stroke-linecap:round"
         d="m 138.16797,80.544922 a 0.33072901,0.33072901 0 0 0 -0.33008,0.332031 0.33072901,0.33072901 0 0 0 0.33008,0.330078 h 9.79492 a 0.33072901,0.33072901 0 0 0 0.33008,-0.330078 0.33072901,0.33072901 0 0 0 -0.33008,-0.332031 z"
         id="path12504" />
      <path
         style="color:#000000;fill:#ffffff;stroke-linecap:round"
         d="m 130.23242,80.544922 a 0.33072901,0.33072901 0 0 0 -0.33203,0.332031 0.33072901,0.33072901 0 0 0 0.33203,0.330078 h 4.56641 a 0.33072901,0.33072901 0 0 0 0.33008,-0.330078 0.33072901,0.33072901 0 0 0 -0.33008,-0.332031 z"
         id="path18875" />
      <path
         style="color:#000000;fill:#ffffff;stroke-linecap:round"
         d="m 126.83789,80.544922 a 0.33072901,0.33072901 0 0 0 -0.33203,0.332031 0.33072901,0.33072901 0 0 0 0.33203,0.330078 h 0.57227 a 0.33072901,0.33072901 0 0 0 0.33203,-0.330078 0.33072901,0.33072901 0 0 0 -0.33203,-0.332031 z"
         id="path18871" />
      <path
         style="color:#000000;fill:#ffffff;stroke-linecap:round"
         d="m 72.267578,80.544922 a 0.33072901,0.33072901 0 0 0 -0.330078,0.332031 0.33072901,0.33072901 0 0 0 0.330078,0.330078 h 4.990234 a 0.33072901,0.33072901 0 0 0 0.330079,-0.330078 0.33072901,0.33072901 0 0 0 -0.330079,-0.332031 z"
         id="path15517" />
      <path
         style="color:#000000;fill:#ffffff;stroke-linecap:round"
         d="m 61.699219,80.544922 a 0.33072901,0.33072901 0 0 0 -0.332032,0.332031 0.33072901,0.33072901 0 0 0 0.332032,0.330078 h 7.199218 a 0.33072901,0.33072901 0 0 0 0.330079,-0.330078 0.33072901,0.33072901 0 0 0 -0.330079,-0.332031 z"
         id="path19843" />
      <path
         style="color:#000000;fill:#ffffff;stroke-linecap:round"
         d="m 53.744141,80.544922 a 0.33072901,0.33072901 0 0 0 -0.332032,0.332031 0.33072901,0.33072901 0 0 0 0.332032,0.330078 h 4.583984 a 0.33072901,0.33072901 0 0 0 0.332031,-0.330078 0.33072901,0.33072901 0 0 0 -0.332031,-0.332031 z"
         id="path19839" />
      <path
         style="color:#000000;fill:#ffffff;stroke-linecap:round"
         d="m 146.14258,86.607422 a 0.33072901,0.33072901 0 0 0 -0.33203,0.330078 0.33072901,0.33072901 0 0 0 0.33203,0.330078 h 2.63867 a 0.33072901,0.33072901 0 0 0 0.33008,-0.330078 0.33072901,0.33072901 0 0 0 -0.33008,-0.330078 z"
         id="path12498" />
      <path
         style="color:#000000;fill:#ffffff;stroke-linecap:round"
         d="m 137.9043,86.607422 a 0.33072901,0.33072901 0 0 0 -0.33008,0.330078 0.33072901,0.33072901 0 0 0 0.33008,0.330078 h 4.07226 a 0.33072901,0.33072901 0 0 0 0.33008,-0.330078 0.33072901,0.33072901 0 0 0 -0.33008,-0.330078 z"
         id="path18890" />
      <path
         style="color:#000000;fill:#ffffff;stroke-linecap:round"
         d="m 132.56836,86.607422 a 0.33072901,0.33072901 0 0 0 -0.33203,0.330078 0.33072901,0.33072901 0 0 0 0.33203,0.330078 h 1.9668 a 0.33072901,0.33072901 0 0 0 0.33007,-0.330078 0.33072901,0.33072901 0 0 0 -0.33007,-0.330078 z"
         id="path18886" />
      <path
         style="color:#000000;fill:#ffffff;stroke-linecap:round"
         d="m 127.25977,86.607422 a 0.33072901,0.33072901 0 0 0 -0.33204,0.330078 0.33072901,0.33072901 0 0 0 0.33204,0.330078 h 1.09765 a 0.33072901,0.33072901 0 0 0 0.33203,-0.330078 0.33072901,0.33072901 0 0 0 -0.33203,-0.330078 z"
         id="path18882" />
      <path
         style="color:#000000;fill:#ffffff;stroke-linecap:round"
         d="m 60.705078,86.607422 a 0.33072901,0.33072901 0 0 0 -0.332031,0.330078 0.33072901,0.33072901 0 0 0 0.332031,0.330078 H 74.917969 A 0.33072901,0.33072901 0 0 0 75.248047,86.9375 0.33072901,0.33072901 0 0 0 74.917969,86.607422 Z"
         id="path15524" />
      <path
         style="color:#000000;fill:#ffffff;stroke-linecap:round"
         d="m 52.923828,86.607422 a 0.33072901,0.33072901 0 0 0 -0.330078,0.330078 0.33072901,0.33072901 0 0 0 0.330078,0.330078 h 5.095703 A 0.33072901,0.33072901 0 0 0 58.349609,86.9375 0.33072901,0.33072901 0 0 0 58.019531,86.607422 Z"
         id="path19833" />
      <path
         style="color:#000000;fill:#ffffff;stroke-linecap:round"
         d="m 143.39258,95.960937 a 0.33072901,0.33072901 0 0 0 -0.33008,0.330079 0.33072901,0.33072901 0 0 0 0.33008,0.332031 h 5.15234 a 0.33072901,0.33072901 0 0 0 0.33008,-0.332031 0.33072901,0.33072901 0 0 0 -0.33008,-0.330079 z"
         id="path12492" />
      <path
         style="color:#000000;fill:#ffffff;stroke-linecap:round"
         d="m 132.28906,95.960937 a 0.33072901,0.33072901 0 0 0 -0.33008,0.330079 0.33072901,0.33072901 0 0 0 0.33008,0.332031 h 7.73438 a 0.33072901,0.33072901 0 0 0 0.33008,-0.332031 0.33072901,0.33072901 0 0 0 -0.33008,-0.330079 z"
         id="path18906" />
      <path
         style="color:#000000;fill:#ffffff;stroke-linecap:round"
         d="m 124.39063,95.960937 a 0.33072901,0.33072901 0 0 0 -0.33204,0.330079 0.33072901,0.33072901 0 0 0 0.33204,0.332031 h 4.52929 a 0.33072901,0.33072901 0 0 0 0.33008,-0.332031 0.33072901,0.33072901 0 0 0 -0.33008,-0.330079 z"
         id="path18902" />
      <path
         style="color:#000000;fill:#ffffff;stroke-linecap:round"
         d="m 72.570312,95.960937 a 0.33072901,0.33072901 0 0 0 -0.330078,0.330079 0.33072901,0.33072901 0 0 0 0.330078,0.332031 h 2.361329 a 0.33072901,0.33072901 0 0 0 0.332031,-0.332031 0.33072901,0.33072901 0 0 0 -0.332031,-0.330079 z"
         id="path15538" />
      <path
         style="color:#000000;fill:#ffffff;stroke-linecap:round"
         d="m 66.904297,95.960937 a 0.33072901,0.33072901 0 0 0 -0.332031,0.330079 0.33072901,0.33072901 0 0 0 0.332031,0.332031 h 3.482422 a 0.33072901,0.33072901 0 0 0 0.330078,-0.332031 0.33072901,0.33072901 0 0 0 -0.330078,-0.330079 z"
         id="path19817" />
      <path
         style="color:#000000;fill:#ffffff;stroke-linecap:round"
         d="m 53.160156,95.960937 a 0.33072901,0.33072901 0 0 0 -0.330078,0.330079 0.33072901,0.33072901 0 0 0 0.330078,0.332031 h 10.373047 a 0.33072901,0.33072901 0 0 0 0.332031,-0.332031 0.33072901,0.33072901 0 0 0 -0.332031,-0.330079 z"
         id="path19813" />
      <path
         style="color:#000000;fill:#ffffff;stroke-linecap:round"
         d="m 144.4375,104.18555 a 0.33072901,0.33072901 0 0 0 -0.33008,0.33008 0.33072901,0.33072901 0 0 0 0.33008,0.33203 h 2.35547 a 0.33072901,0.33072901 0 0 0 0.33203,-0.33203 0.33072901,0.33072901 0 0 0 -0.33203,-0.33008 z"
         id="path12486" />
      <path
         style="color:#000000;fill:#ffffff;stroke-linecap:round"
         d="m 133.95117,104.18555 a 0.33072901,0.33072901 0 0 0 -0.33203,0.33008 0.33072901,0.33072901 0 0 0 0.33203,0.33203 h 7.11719 a 0.33072901,0.33072901 0 0 0 0.33008,-0.33203 0.33072901,0.33072901 0 0 0 -0.33008,-0.33008 z"
         id="path18922" />
      <path
         style="color:#000000;fill:#ffffff;stroke-linecap:round"
         d="m 127.58594,104.18555 a 0.33072901,0.33072901 0 0 0 -0.33008,0.33008 0.33072901,0.33072901 0 0 0 0.33008,0.33203 h 2.99414 a 0.33072901,0.33072901 0 0 0 0.33203,-0.33203 0.33072901,0.33072901 0 0 0 -0.33203,-0.33008 z"
         id="path18918" />
      <path
         style="color:#000000;fill:#ffffff;stroke-linecap:round"
         d="m 74.808594,104.18555 a 0.33072901,0.33072901 0 0 0 -0.332032,0.33008 0.33072901,0.33072901 0 0 0 0.332032,0.33203 h 11.818359 a 0.33072901,0.33072901 0 0 0 0.330078,-0.33203 0.33072901,0.33072901 0 0 0 -0.330078,-0.33008 z"
         id="path15552" />
      <path
         style="color:#000000;fill:#ffffff;stroke-linecap:round"
         d="m 68.152344,104.18555 a 0.33072901,0.33072901 0 0 0 -0.332032,0.33008 0.33072901,0.33072901 0 0 0 0.332032,0.33203 h 3.287109 a 0.33072901,0.33072901 0 0 0 0.330078,-0.33203 0.33072901,0.33072901 0 0 0 -0.330078,-0.33008 z"
         id="path19801" />
      <path
         style="color:#000000;fill:#ffffff;stroke-linecap:round"
         d="m 59.837891,104.18555 a 0.33072901,0.33072901 0 0 0 -0.332032,0.33008 0.33072901,0.33072901 0 0 0 0.332032,0.33203 h 4.943359 a 0.33072901,0.33072901 0 0 0 0.330078,-0.33203 0.33072901,0.33072901 0 0 0 -0.330078,-0.33008 z"
         id="path19797" />
      <path
         style="color:#000000;fill:#ffffff;stroke-linecap:round"
         d="m 54.912109,104.18555 a 0.33072901,0.33072901 0 0 0 -0.332031,0.33008 0.33072901,0.33072901 0 0 0 0.332031,0.33203 h 1.556641 a 0.33072901,0.33072901 0 0 0 0.330078,-0.33203 0.33072901,0.33072901 0 0 0 -0.330078,-0.33008 z"
         id="path19793" />
      <path
         style="color:#000000;fill:#ffffff;stroke-linecap:round"
         d="m 137.39453,110.375 a 0.33072901,0.33072901 0 0 0 -0.33203,0.33008 0.33072901,0.33072901 0 0 0 0.33203,0.33203 h 7.01563 a 0.33072901,0.33072901 0 0 0 0.33007,-0.33203 0.33072901,0.33072901 0 0 0 -0.33007,-0.33008 z"
         id="path12480" />
      <path
         style="color:#000000;fill:#ffffff;stroke-linecap:round"
         d="m 126.70703,110.375 a 0.33072901,0.33072901 0 0 0 -0.33008,0.33008 0.33072901,0.33072901 0 0 0 0.33008,0.33203 h 7.31641 a 0.33072901,0.33072901 0 0 0 0.33203,-0.33203 0.33072901,0.33072901 0 0 0 -0.33203,-0.33008 z"
         id="path18927" />
      <path
         style="color:#000000;fill:#ffffff;stroke-linecap:round"
         d="m 86.529297,110.375 a 0.33072901,0.33072901 0 0 0 -0.330078,0.33008 0.33072901,0.33072901 0 0 0 0.330078,0.33203 h 4.037109 a 0.33072901,0.33072901 0 0 0 0.330078,-0.33203 0.33072901,0.33072901 0 0 0 -0.330078,-0.33008 z"
         id="path15559" />
      <path
         style="color:#000000;fill:#ffffff;stroke-linecap:round"
         d="m 82.021484,110.375 a 0.33072901,0.33072901 0 0 0 -0.330078,0.33008 0.33072901,0.33072901 0 0 0 0.330078,0.33203 h 1.138672 a 0.33072901,0.33072901 0 0 0 0.330078,-0.33203 0.33072901,0.33072901 0 0 0 -0.330078,-0.33008 z"
         id="path19786" />
      <path
         style="color:#000000;fill:#ffffff;stroke-linecap:round"
         d="m 68.878906,110.375 a 0.33072901,0.33072901 0 0 0 -0.332031,0.33008 0.33072901,0.33072901 0 0 0 0.332031,0.33203 h 9.773438 a 0.33072901,0.33072901 0 0 0 0.330078,-0.33203 0.33072901,0.33072901 0 0 0 -0.330078,-0.33008 z"
         id="path19782" />
      <path
         style="color:#000000;fill:#ffffff;stroke-linecap:round"
         d="m 57.296875,110.375 a 0.33072901,0.33072901 0 0 0 -0.332031,0.33008 0.33072901,0.33072901 0 0 0 0.332031,0.33203 h 8.210937 a 0.33072901,0.33072901 0 0 0 0.332032,-0.33203 0.33072901,0.33072901 0 0 0 -0.332032,-0.33008 z"
         id="path19778" />
      <path
         style="color:#000000;fill:#ffffff;stroke-linecap:round"
         d="m 137.16211,116.62695 a 0.33072901,0.33072901 0 0 0 -0.33008,0.33203 0.33072901,0.33072901 0 0 0 0.33008,0.33008 h 3.73437 a 0.33072901,0.33072901 0 0 0 0.33008,-0.33008 0.33072901,0.33072901 0 0 0 -0.33008,-0.33203 z"
         id="path12474" />
      <path
         style="color:#000000;fill:#ffffff;stroke-linecap:round"
         d="m 121.28125,116.62695 a 0.33072901,0.33072901 0 0 0 -0.33008,0.33203 0.33072901,0.33072901 0 0 0 0.33008,0.33008 h 10.93945 a 0.33072901,0.33072901 0 0 0 0.33008,-0.33008 0.33072901,0.33072901 0 0 0 -0.33008,-0.33203 z"
         id="path18932" />
      <path
         style="color:#000000;fill:#ffffff;stroke-linecap:round"
         d="m 74.298828,116.62695 a 0.33072901,0.33072901 0 0 0 -0.330078,0.33203 0.33072901,0.33072901 0 0 0 0.330078,0.33008 h 20.859375 a 0.33072901,0.33072901 0 0 0 0.330078,-0.33008 0.33072901,0.33072901 0 0 0 -0.330078,-0.33203 z"
         id="path15566" />
      <path
         style="color:#000000;fill:#ffffff;stroke-linecap:round"
         d="m 60.808594,116.62695 a 0.33072901,0.33072901 0 0 0 -0.330078,0.33203 0.33072901,0.33072901 0 0 0 0.330078,0.33008 h 10.121093 a 0.33072901,0.33072901 0 0 0 0.330079,-0.33008 0.33072901,0.33072901 0 0 0 -0.330079,-0.33203 z"
         id="path19771" />
      <path
         style="color:#000000;fill:#ffffff;stroke-linecap:round"
         d="m 83.595703,124.12695 a 0.33072901,0.33072901 0 0 0 -0.330078,0.33203 0.33072901,0.33072901 0 0 0 0.330078,0.33008 h 51.144527 a 0.33072901,0.33072901 0 0 0 0.33204,-0.33008 0.33072901,0.33072901 0 0 0 -0.33204,-0.33203 z"
         id="path12468" />
      <path
         style="color:#000000;fill:#ffffff;stroke-linecap:round"
         d="m 66.964844,124.12695 a 0.33072901,0.33072901 0 0 0 -0.332032,0.33203 0.33072901,0.33072901 0 0 0 0.332032,0.33008 h 6.794922 a 0.33072901,0.33072901 0 0 0 0.330078,-0.33008 0.33072901,0.33072901 0 0 0 -0.330078,-0.33203 z"
         id="path19711" />
      <path
         style="color:#000000;fill:#ffffff;stroke-linecap:round"
         d="m 123.21484,129.24414 a 0.33072901,0.33072901 0 0 0 -0.33007,0.33008 0.33072901,0.33072901 0 0 0 0.33007,0.33203 h 5.46289 a 0.33072901,0.33072901 0 0 0 0.33008,-0.33203 0.33072901,0.33072901 0 0 0 -0.33008,-0.33008 z"
         id="path12462" />
      <path
         style="color:#000000;fill:#ffffff;stroke-linecap:round"
         d="m 116.75391,129.24414 a 0.33072901,0.33072901 0 0 0 -0.33008,0.33008 0.33072901,0.33072901 0 0 0 0.33008,0.33203 h 4.41015 a 0.33072901,0.33072901 0 0 0 0.33008,-0.33203 0.33072901,0.33072901 0 0 0 -0.33008,-0.33008 z"
         id="path19743" />
      <path
         style="color:#000000;fill:#ffffff;stroke-linecap:round"
         d="m 109,129.24414 a 0.33072901,0.33072901 0 0 0 -0.33008,0.33008 0.33072901,0.33072901 0 0 0 0.33008,0.33203 h 6.5625 a 0.33072901,0.33072901 0 0 0 0.33008,-0.33203 0.33072901,0.33072901 0 0 0 -0.33008,-0.33008 z"
         id="path19739" />
      <path
         style="color:#000000;fill:#ffffff;stroke-linecap:round"
         d="M 98.332031,129.24414 A 0.33072901,0.33072901 0 0 0 98,129.57422 a 0.33072901,0.33072901 0 0 0 0.332031,0.33203 h 4.091799 a 0.33072901,0.33072901 0 0 0 0.33008,-0.33203 0.33072901,0.33072901 0 0 0 -0.33008,-0.33008 z"
         id="path19735" />
      <path
         style="color:#000000;fill:#ffffff;stroke-linecap:round"
         d="m 95.105469,129.24414 a 0.33072901,0.33072901 0 0 0 -0.330078,0.33008 0.33072901,0.33072901 0 0 0 0.330078,0.33203 h 1.173828 a 0.33072901,0.33072901 0 0 0 0.330078,-0.33203 0.33072901,0.33072901 0 0 0 -0.330078,-0.33008 z"
         id="path19731" />
      <path
         style="color:#000000;fill:#ffffff;stroke-linecap:round"
         d="m 88.339844,129.24414 a 0.33072901,0.33072901 0 0 0 -0.332032,0.33008 0.33072901,0.33072901 0 0 0 0.332032,0.33203 h 2.583984 a 0.33072901,0.33072901 0 0 0 0.330078,-0.33203 0.33072901,0.33072901 0 0 0 -0.330078,-0.33008 z"
         id="path19727" />
      <path
         style="color:#000000;fill:#ffffff;stroke-linecap:round"
         d="m 73.027344,129.24414 a 0.33072901,0.33072901 0 0 0 -0.330078,0.33008 0.33072901,0.33072901 0 0 0 0.330078,0.33203 h 13.259765 a 0.33072901,0.33072901 0 0 0 0.332032,-0.33203 0.33072901,0.33072901 0 0 0 -0.332032,-0.33008 z"
         id="path19723" />
      <path
         style="color:#000000;fill:#ffffff;stroke-linecap:round"
         d="m 118.60742,133.53516 a 0.33072901,0.33072901 0 0 0 -0.33008,0.33007 0.33072901,0.33072901 0 0 0 0.33008,0.33204 h 2.73828 a 0.33072901,0.33072901 0 0 0 0.33008,-0.33204 0.33072901,0.33072901 0 0 0 -0.33008,-0.33007 z"
         id="path12456" />
      <path
         style="color:#000000;fill:#ffffff;stroke-linecap:round"
         d="m 112.52539,133.53516 a 0.33072901,0.33072901 0 0 0 -0.33203,0.33007 0.33072901,0.33072901 0 0 0 0.33203,0.33204 h 1.78125 a 0.33072901,0.33072901 0 0 0 0.33008,-0.33204 0.33072901,0.33072901 0 0 0 -0.33008,-0.33007 z"
         id="path19766" />
      <path
         style="color:#000000;fill:#ffffff;stroke-linecap:round"
         d="m 104.20898,133.53516 a 0.33072901,0.33072901 0 0 0 -0.33007,0.33007 0.33072901,0.33072901 0 0 0 0.33007,0.33204 h 6.26368 a 0.33072901,0.33072901 0 0 0 0.33007,-0.33204 0.33072901,0.33072901 0 0 0 -0.33007,-0.33007 z"
         id="path19762" />
      <path
         style="color:#000000;fill:#ffffff;stroke-linecap:round"
         d="m 96.486328,133.53516 a 0.33072901,0.33072901 0 0 0 -0.330078,0.33007 0.33072901,0.33072901 0 0 0 0.330078,0.33204 h 5.669922 a 0.33072901,0.33072901 0 0 0 0.33203,-0.33204 0.33072901,0.33072901 0 0 0 -0.33203,-0.33007 z"
         id="path19758" />
      <path
         style="color:#000000;fill:#ffffff;stroke-linecap:round"
         d="M 90.330078,133.53516 A 0.33072901,0.33072901 0 0 0 90,133.86523 a 0.33072901,0.33072901 0 0 0 0.330078,0.33204 h 4.753906 a 0.33072901,0.33072901 0 0 0 0.332032,-0.33204 0.33072901,0.33072901 0 0 0 -0.332032,-0.33007 z"
         id="path19754" />
      <path
         style="color:#000000;fill:#ffffff;stroke-linecap:round"
         d="m 80.359375,133.53516 a 0.33072901,0.33072901 0 0 0 -0.330078,0.33007 0.33072901,0.33072901 0 0 0 0.330078,0.33204 h 7.919922 a 0.33072901,0.33072901 0 0 0 0.330078,-0.33204 0.33072901,0.33072901 0 0 0 -0.330078,-0.33007 z"
         id="path19750" />
      <path
         style="color:#000000;fill:#ffffff;stroke-linecap:round"
         d="m 133.35547,91.333984 a 0.33072901,0.33072901 0 0 0 -0.33008,0.330078 0.33072901,0.33072901 0 0 0 0.33008,0.330079 h 15.5332 a 0.33072901,0.33072901 0 0 0 0.33008,-0.330079 0.33072901,0.33072901 0 0 0 -0.33008,-0.330078 z"
         id="path12450" />
      <path
         style="color:#000000;fill:#ffffff;stroke-linecap:round"
         d="m 126.14453,91.333984 a 0.33072901,0.33072901 0 0 0 -0.33008,0.330078 0.33072901,0.33072901 0 0 0 0.33008,0.330079 h 3.83984 a 0.33072901,0.33072901 0 0 0 0.33204,-0.330079 0.33072901,0.33072901 0 0 0 -0.33204,-0.330078 z"
         id="path18895" />
      <path
         style="color:#000000;fill:#ffffff;stroke-linecap:round"
         d="m 71.283203,91.333984 a 0.33072901,0.33072901 0 0 0 -0.332031,0.330078 0.33072901,0.33072901 0 0 0 0.332031,0.330079 h 3.808594 a 0.33072901,0.33072901 0 0 0 0.332031,-0.330079 0.33072901,0.33072901 0 0 0 -0.332031,-0.330078 z"
         id="path15531" />
      <path
         style="color:#000000;fill:#ffffff;stroke-linecap:round"
         d="m 58.513672,91.333984 a 0.33072901,0.33072901 0 0 0 -0.332031,0.330078 0.33072901,0.33072901 0 0 0 0.332031,0.330079 h 5.814453 a 0.33072901,0.33072901 0 0 0 0.332031,-0.330079 0.33072901,0.33072901 0 0 0 -0.332031,-0.330078 z"
         id="path19828" />
      <path
         style="color:#000000;fill:#ffffff;stroke-linecap:round"
         d="m 52.816406,91.333984 a 0.33072901,0.33072901 0 0 0 -0.330078,0.330078 0.33072901,0.33072901 0 0 0 0.330078,0.330079 h 2.326172 a 0.33072901,0.33072901 0 0 0 0.332031,-0.330079 0.33072901,0.33072901 0 0 0 -0.332031,-0.330078 z"
         id="path19824" />
      <path
         style="color:#000000;fill:#ffffff;stroke-linecap:round"
         d="m 121.12891,62.341797 a 0.33072901,0.33072901 0 0 0 -0.33203,0.332031 0.33072901,0.33072901 0 0 0 0.33203,0.330078 h 18.98242 a 0.33072901,0.33072901 0 0 0 0.33008,-0.330078 0.33072901,0.33072901 0 0 0 -0.33008,-0.332031 z"
         id="path12444" />
      <path
         style="color:#000000;fill:#ffffff;stroke-linecap:round"
         d="m 109.04102,62.341797 a 0.33072901,0.33072901 0 0 0 -0.33204,0.332031 0.33072901,0.33072901 0 0 0 0.33204,0.330078 h 8.71679 a 0.33072901,0.33072901 0 0 0 0.33203,-0.330078 0.33072901,0.33072901 0 0 0 -0.33203,-0.332031 z"
         id="path18814" />
      <path
         style="color:#000000;fill:#ffffff;stroke-linecap:round"
         d="m 74.523437,62.341797 a 0.33072901,0.33072901 0 0 0 -0.330078,0.332031 0.33072901,0.33072901 0 0 0 0.330078,0.330078 h 1.88086 a 0.33072901,0.33072901 0 0 0 0.332031,-0.330078 0.33072901,0.33072901 0 0 0 -0.332031,-0.332031 z"
         id="path15477" />
      <path
         style="color:#000000;fill:#ffffff;stroke-linecap:round"
         d="m 61.59375,62.341797 a 0.33072901,0.33072901 0 0 0 -0.330078,0.332031 0.33072901,0.33072901 0 0 0 0.330078,0.330078 h 9.042969 a 0.33072901,0.33072901 0 0 0 0.330078,-0.330078 0.33072901,0.33072901 0 0 0 -0.330078,-0.332031 z"
         id="path19848" />
      <path
         style="color:#000000;fill:#ffffff;stroke-linecap:round"
         d="m 145.0293,76.25 a 0.33072901,0.33072901 0 0 0 -0.33008,0.332031 0.33072901,0.33072901 0 0 0 0.33008,0.330078 h 1.85937 A 0.33072901,0.33072901 0 0 0 147.21875,76.582031 0.33072901,0.33072901 0 0 0 146.88867,76.25 Z"
         id="path12438" />
      <path
         style="color:#000000;fill:#ffffff;stroke-linecap:round"
         d="m 137.33789,76.25 a 0.33072901,0.33072901 0 0 0 -0.33008,0.332031 0.33072901,0.33072901 0 0 0 0.33008,0.330078 h 3.01563 A 0.33072901,0.33072901 0 0 0 140.68359,76.582031 0.33072901,0.33072901 0 0 0 140.35352,76.25 Z"
         id="path18853" />
      <path
         style="color:#000000;fill:#ffffff;stroke-linecap:round"
         d="m 131.03125,76.25 a 0.33072901,0.33072901 0 0 0 -0.33203,0.332031 0.33072901,0.33072901 0 0 0 0.33203,0.330078 h 2.17773 A 0.33072901,0.33072901 0 0 0 133.53906,76.582031 0.33072901,0.33072901 0 0 0 133.20898,76.25 Z"
         id="path18849" />
      <path
         style="color:#000000;fill:#ffffff;stroke-linecap:round"
         d="m 127.01758,76.25 a 0.33072901,0.33072901 0 0 0 -0.33008,0.332031 0.33072901,0.33072901 0 0 0 0.33008,0.330078 h 0.64258 A 0.33072901,0.33072901 0 0 0 127.99219,76.582031 0.33072901,0.33072901 0 0 0 127.66016,76.25 Z"
         id="path18845" />
      <path
         style="color:#000000;fill:#ffffff;stroke-linecap:round"
         d="m 122.00195,76.25 a 0.33072901,0.33072901 0 0 0 -0.33007,0.332031 0.33072901,0.33072901 0 0 0 0.33007,0.330078 h 3.52539 A 0.33072901,0.33072901 0 0 0 125.85938,76.582031 0.33072901,0.33072901 0 0 0 125.52734,76.25 Z"
         id="path18841" />
      <path
         style="color:#000000;fill:#ffffff;stroke-linecap:round"
         d="m 64.113281,76.25 a 0.33072901,0.33072901 0 0 0 -0.330078,0.332031 0.33072901,0.33072901 0 0 0 0.330078,0.330078 H 73.875 A 0.33072901,0.33072901 0 0 0 74.205078,76.582031 0.33072901,0.33072901 0 0 0 73.875,76.25 Z"
         id="path15503" />
      <path
         style="color:#000000;fill:#ffffff;stroke-linecap:round"
         d="m 54.816406,76.25 a 0.33072901,0.33072901 0 0 0 -0.330078,0.332031 0.33072901,0.33072901 0 0 0 0.330078,0.330078 h 4.16211 A 0.33072901,0.33072901 0 0 0 59.308594,76.582031 0.33072901,0.33072901 0 0 0 58.978516,76.25 Z"
         id="path19874" />
      <path
         style="color:#000000;fill:#ffffff;stroke-linecap:round"
         d="m 140.05664,78.285156 a 0.33072901,0.33072901 0 0 0 -0.33008,0.330078 0.33072901,0.33072901 0 0 0 0.33008,0.330078 h 7.39258 a 0.33072901,0.33072901 0 0 0 0.33203,-0.330078 0.33072901,0.33072901 0 0 0 -0.33203,-0.330078 z"
         id="path12432" />
      <path
         style="color:#000000;fill:#ffffff;stroke-linecap:round"
         d="m 133.74414,78.285156 a 0.33072901,0.33072901 0 0 0 -0.33203,0.330078 0.33072901,0.33072901 0 0 0 0.33203,0.330078 h 2.94336 a 0.33072901,0.33072901 0 0 0 0.33008,-0.330078 0.33072901,0.33072901 0 0 0 -0.33008,-0.330078 z"
         id="path18864" />
      <path
         style="color:#000000;fill:#ffffff;stroke-linecap:round"
         d="m 124.56836,78.285156 a 0.33072901,0.33072901 0 0 0 -0.33203,0.330078 0.33072901,0.33072901 0 0 0 0.33203,0.330078 h 6.35351 a 0.33072901,0.33072901 0 0 0 0.33204,-0.330078 0.33072901,0.33072901 0 0 0 -0.33204,-0.330078 z"
         id="path18860" />
      <path
         style="color:#000000;fill:#ffffff;stroke-linecap:round"
         d="m 71.289062,78.285156 a 0.33072901,0.33072901 0 0 0 -0.330078,0.330078 0.33072901,0.33072901 0 0 0 0.330078,0.330078 H 74.5 A 0.33072901,0.33072901 0 0 0 74.830078,78.615234 0.33072901,0.33072901 0 0 0 74.5,78.285156 Z"
         id="path15510" />
      <path
         style="color:#000000;fill:#ffffff;stroke-linecap:round"
         d="m 66.865234,78.285156 a 0.33072901,0.33072901 0 0 0 -0.332031,0.330078 0.33072901,0.33072901 0 0 0 0.332031,0.330078 h 2.816407 a 0.33072901,0.33072901 0 0 0 0.330078,-0.330078 0.33072901,0.33072901 0 0 0 -0.330078,-0.330078 z"
         id="path19885" />
      <path
         style="color:#000000;fill:#ffffff;stroke-linecap:round"
         d="m 54.255859,78.285156 a 0.33072901,0.33072901 0 0 0 -0.332031,0.330078 0.33072901,0.33072901 0 0 0 0.332031,0.330078 h 11.492188 a 0.33072901,0.33072901 0 0 0 0.330078,-0.330078 0.33072901,0.33072901 0 0 0 -0.330078,-0.330078 z"
         id="path19881" />
      <path
         style="color:#000000;fill:#ffffff;stroke-linecap:round"
         d="m 138.55664,99.929687 a 0.33072901,0.33072901 0 0 0 -0.33008,0.330083 0.33072901,0.33072901 0 0 0 0.33008,0.33007 h 9.33203 a 0.33072901,0.33072901 0 0 0 0.33008,-0.33007 0.33072901,0.33072901 0 0 0 -0.33008,-0.330083 z"
         id="path12426" />
      <path
         style="color:#000000;fill:#ffffff;stroke-linecap:round"
         d="m 126.79492,99.929687 a 0.33072901,0.33072901 0 0 0 -0.33203,0.330083 0.33072901,0.33072901 0 0 0 0.33203,0.33007 h 8.39258 a 0.33072901,0.33072901 0 0 0 0.33008,-0.33007 0.33072901,0.33072901 0 0 0 -0.33008,-0.330083 z"
         id="path18911" />
      <path
         style="color:#000000;fill:#ffffff;stroke-linecap:round"
         d="m 61.347656,99.929687 a 0.33072901,0.33072901 0 0 0 -0.332031,0.330083 0.33072901,0.33072901 0 0 0 0.332031,0.33007 h 16.484375 a 0.33072901,0.33072901 0 0 0 0.330078,-0.33007 0.33072901,0.33072901 0 0 0 -0.330078,-0.330083 z"
         id="path15545" />
      <path
         style="color:#000000;fill:#ffffff;stroke-linecap:round"
         d="m 53.816406,99.929687 a 0.33072901,0.33072901 0 0 0 -0.330078,0.330083 0.33072901,0.33072901 0 0 0 0.330078,0.33007 h 4.160156 a 0.33072901,0.33072901 0 0 0 0.332032,-0.33007 0.33072901,0.33072901 0 0 0 -0.332032,-0.330083 z"
         id="path19806" />
      <path
         style="color:#000000;fill:#ffffff;stroke-linecap:round"
         d="m 129.73047,120.64258 a 0.33072901,0.33072901 0 0 0 -0.33008,0.33203 0.33072901,0.33072901 0 0 0 0.33008,0.33008 h 8.18945 a 0.33072901,0.33072901 0 0 0 0.33008,-0.33008 0.33072901,0.33072901 0 0 0 -0.33008,-0.33203 z"
         id="path12420" />
      <path
         style="color:#000000;fill:#ffffff;stroke-linecap:round"
         d="m 111.91797,120.64258 a 0.33072901,0.33072901 0 0 0 -0.33203,0.33203 0.33072901,0.33072901 0 0 0 0.33203,0.33008 h 9.90234 a 0.33072901,0.33072901 0 0 0 0.33008,-0.33008 0.33072901,0.33072901 0 0 0 -0.33008,-0.33203 z"
         id="path18955" />
      <path
         style="color:#000000;fill:#ffffff;stroke-linecap:round"
         d="m 92.626953,120.64258 a 0.33072901,0.33072901 0 0 0 -0.330078,0.33203 0.33072901,0.33072901 0 0 0 0.330078,0.33008 h 15.919927 a 0.33072901,0.33072901 0 0 0 0.33203,-0.33008 0.33072901,0.33072901 0 0 0 -0.33203,-0.33203 z"
         id="path18951" />
      <path
         style="color:#000000;fill:#ffffff;stroke-linecap:round"
         d="m 84.255859,120.64258 a 0.33072901,0.33072901 0 0 0 -0.330078,0.33203 0.33072901,0.33072901 0 0 0 0.330078,0.33008 h 5.001953 a 0.33072901,0.33072901 0 0 0 0.330079,-0.33008 0.33072901,0.33072901 0 0 0 -0.330079,-0.33203 z"
         id="path18947" />
      <path
         style="color:#000000;fill:#ffffff;stroke-linecap:round"
         d="m 80.255859,120.64258 a 0.33072901,0.33072901 0 0 0 -0.332031,0.33203 0.33072901,0.33072901 0 0 0 0.332031,0.33008 h 0.63086 a 0.33072901,0.33072901 0 0 0 0.330078,-0.33008 0.33072901,0.33072901 0 0 0 -0.330078,-0.33203 z"
         id="path18943" />
      <path
         style="color:#000000;fill:#ffffff;stroke-linecap:round"
         d="m 63.787109,120.64258 a 0.33072901,0.33072901 0 0 0 -0.332031,0.33203 0.33072901,0.33072901 0 0 0 0.332031,0.33008 h 13.097657 a 0.33072901,0.33072901 0 0 0 0.330078,-0.33008 0.33072901,0.33072901 0 0 0 -0.330078,-0.33203 z"
         id="path18939" />
      <path
         style="color:#000000;fill:#ffffff;stroke-linecap:round"
         d="m 82.84375,126.83789 a 0.33072901,0.33072901 0 0 0 -0.332031,0.33008 0.33072901,0.33072901 0 0 0 0.332031,0.33008 h 48.93555 a 0.33072901,0.33072901 0 0 0 0.33007,-0.33008 0.33072901,0.33072901 0 0 0 -0.33007,-0.33008 z"
         id="path12414" />
      <path
         style="color:#000000;fill:#ffffff;stroke-linecap:round"
         d="m 69.925781,126.83789 a 0.33072901,0.33072901 0 0 0 -0.330078,0.33008 0.33072901,0.33072901 0 0 0 0.330078,0.33008 h 10.865235 a 0.33072901,0.33072901 0 0 0 0.330078,-0.33008 0.33072901,0.33072901 0 0 0 -0.330078,-0.33008 z"
         id="path19716" />
      <path
         style="color:#000000;fill:#ffffff;stroke-linecap:round"
         d="m 117.69922,122.36523 a 0.33072901,0.33072901 0 0 0 -0.33203,0.33008 0.33072901,0.33072901 0 0 0 0.33203,0.33203 h 18.72851 a 0.33072901,0.33072901 0 0 0 0.33008,-0.33203 0.33072901,0.33072901 0 0 0 -0.33008,-0.33008 z"
         id="path12408" />
      <path
         style="color:#000000;fill:#ffffff;stroke-linecap:round"
         d="m 105.8418,122.36523 a 0.33072901,0.33072901 0 0 0 -0.33008,0.33008 0.33072901,0.33072901 0 0 0 0.33008,0.33203 h 9.80468 a 0.33072901,0.33072901 0 0 0 0.33008,-0.33203 0.33072901,0.33072901 0 0 0 -0.33008,-0.33008 z"
         id="path19706" />
      <path
         style="color:#000000;fill:#ffffff;stroke-linecap:round"
         d="m 99.710937,122.36523 a 0.33072901,0.33072901 0 0 0 -0.330078,0.33008 0.33072901,0.33072901 0 0 0 0.330078,0.33203 h 1.541013 a 0.33072901,0.33072901 0 0 0 0.33203,-0.33203 0.33072901,0.33072901 0 0 0 -0.33203,-0.33008 z"
         id="path19702" />
      <path
         style="color:#000000;fill:#ffffff;stroke-linecap:round"
         d="m 87.431641,122.36523 a 0.33072901,0.33072901 0 0 0 -0.332032,0.33008 0.33072901,0.33072901 0 0 0 0.332032,0.33203 h 10.228515 a 0.33072901,0.33072901 0 0 0 0.330078,-0.33203 0.33072901,0.33072901 0 0 0 -0.330078,-0.33008 z"
         id="path19698" />
      <path
         style="color:#000000;fill:#ffffff;stroke-linecap:round"
         d="m 72.460937,122.36523 a 0.33072901,0.33072901 0 0 0 -0.330078,0.33008 0.33072901,0.33072901 0 0 0 0.330078,0.33203 h 12.917969 a 0.33072901,0.33072901 0 0 0 0.330078,-0.33203 0.33072901,0.33072901 0 0 0 -0.330078,-0.33008 z"
         id="path19694" />
      <path
         style="color:#000000;fill:#ffffff;stroke-linecap:round"
         d="m 65.277344,122.36523 a 0.33072901,0.33072901 0 0 0 -0.330078,0.33008 0.33072901,0.33072901 0 0 0 0.330078,0.33203 h 5.132812 a 0.33072901,0.33072901 0 0 0 0.330078,-0.33203 0.33072901,0.33072901 0 0 0 -0.330078,-0.33008 z"
         id="path19690" />
      <path
         style="color:#000000;fill:#ffffff;stroke-linecap:round"
         d="m 131.91016,54.080078 a 0.33072901,0.33072901 0 0 0 -0.33008,0.330078 0.33072901,0.33072901 0 0 0 0.33008,0.332031 h 0.79296 a 0.33072901,0.33072901 0 0 0 0.33204,-0.332031 0.33072901,0.33072901 0 0 0 -0.33204,-0.330078 z"
         id="path12402" />
      <path
         style="color:#000000;fill:#ffffff;stroke-linecap:round"
         d="m 117.66211,54.080078 a 0.33072901,0.33072901 0 0 0 -0.33008,0.330078 0.33072901,0.33072901 0 0 0 0.33008,0.332031 h 7.63086 a 0.33072901,0.33072901 0 0 0 0.33203,-0.332031 0.33072901,0.33072901 0 0 0 -0.33203,-0.330078 z"
         id="path18768" />
      <path
         style="color:#000000;fill:#ffffff;stroke-linecap:round"
         d="m 97.863281,54.080078 a 0.33072901,0.33072901 0 0 0 -0.332031,0.330078 0.33072901,0.33072901 0 0 0 0.332031,0.332031 h 16.429689 a 0.33072901,0.33072901 0 0 0 0.33008,-0.332031 0.33072901,0.33072901 0 0 0 -0.33008,-0.330078 z"
         id="path18764" />
      <path
         style="color:#000000;fill:#ffffff;stroke-linecap:round"
         d="m 81.128906,54.080078 a 0.33072901,0.33072901 0 0 0 -0.330078,0.330078 0.33072901,0.33072901 0 0 0 0.330078,0.332031 h 13.365235 a 0.33072901,0.33072901 0 0 0 0.330078,-0.332031 0.33072901,0.33072901 0 0 0 -0.330078,-0.330078 z"
         id="path18760" />
      <path
         style="color:#000000;fill:#ffffff;stroke-linecap:round"
         d="m 69.001953,54.080078 a 0.33072901,0.33072901 0 0 0 -0.332031,0.330078 0.33072901,0.33072901 0 0 0 0.332031,0.332031 h 8.757813 a 0.33072901,0.33072901 0 0 0 0.330078,-0.332031 0.33072901,0.33072901 0 0 0 -0.330078,-0.330078 z"
         id="path18756" />
      <path
         style="color:#000000;fill:#ffffff;stroke-linecap:round"
         d="m 124.80469,56.539062 a 0.33072901,0.33072901 0 0 0 -0.33203,0.330079 0.33072901,0.33072901 0 0 0 0.33203,0.330078 h 10.47656 a 0.33072901,0.33072901 0 0 0 0.33008,-0.330078 0.33072901,0.33072901 0 0 0 -0.33008,-0.330079 z"
         id="path12396" />
      <path
         style="color:#000000;fill:#ffffff;stroke-linecap:round"
         d="m 109.04102,56.539062 a 0.33072901,0.33072901 0 0 0 -0.33008,0.330079 0.33072901,0.33072901 0 0 0 0.33008,0.330078 h 12.39257 a 0.33072901,0.33072901 0 0 0 0.33204,-0.330078 0.33072901,0.33072901 0 0 0 -0.33204,-0.330079 z"
         id="path18799" />
      <path
         style="color:#000000;fill:#ffffff;stroke-linecap:round"
         d="m 101.78125,56.539062 a 0.33072901,0.33072901 0 0 0 -0.33008,0.330079 0.33072901,0.33072901 0 0 0 0.33008,0.330078 h 3.89063 a 0.33072901,0.33072901 0 0 0 0.33007,-0.330078 0.33072901,0.33072901 0 0 0 -0.33007,-0.330079 z"
         id="path18795" />
      <path
         style="color:#000000;fill:#ffffff;stroke-linecap:round"
         d="m 92.863281,56.539062 a 0.33072901,0.33072901 0 0 0 -0.330078,0.330079 0.33072901,0.33072901 0 0 0 0.330078,0.330078 h 5.548828 a 0.33072901,0.33072901 0 0 0 0.330078,-0.330078 0.33072901,0.33072901 0 0 0 -0.330078,-0.330079 z"
         id="path18791" />
      <path
         style="color:#000000;fill:#ffffff;stroke-linecap:round"
         d="m 87.544922,56.539062 a 0.33072901,0.33072901 0 0 0 -0.330078,0.330079 0.33072901,0.33072901 0 0 0 0.330078,0.330078 h 1.949219 a 0.33072901,0.33072901 0 0 0 0.330078,-0.330078 0.33072901,0.33072901 0 0 0 -0.330078,-0.330079 z"
         id="path18787" />
      <path
         style="color:#000000;fill:#ffffff;stroke-linecap:round"
         d="m 78.048828,56.539062 a 0.33072901,0.33072901 0 0 0 -0.330078,0.330079 0.33072901,0.33072901 0 0 0 0.330078,0.330078 h 4.744141 a 0.33072901,0.33072901 0 0 0 0.330078,-0.330078 0.33072901,0.33072901 0 0 0 -0.330078,-0.330079 z"
         id="path18783" />
      <path
         style="color:#000000;fill:#ffffff;stroke-linecap:round"
         d="m 73.876953,56.539062 a 0.33072901,0.33072901 0 0 0 -0.332031,0.330079 0.33072901,0.33072901 0 0 0 0.332031,0.330078 h 0.619141 a 0.33072901,0.33072901 0 0 0 0.332031,-0.330078 0.33072901,0.33072901 0 0 0 -0.332031,-0.330079 z"
         id="path18779" />
      <path
         style="color:#000000;fill:#ffffff;stroke-linecap:round"
         d="m 66.423828,56.539062 a 0.33072901,0.33072901 0 0 0 -0.330078,0.330079 0.33072901,0.33072901 0 0 0 0.330078,0.330078 h 5.509766 a 0.33072901,0.33072901 0 0 0 0.332031,-0.330078 0.33072901,0.33072901 0 0 0 -0.332031,-0.330079 z"
         id="path18775" />
    </g>
  </g>
</svg>
